<?xml version="1.0"?>
<svg xmlns="http://www.w3.org/2000/svg" xmlns:xlink="http://www.w3.org/1999/xlink" version="1.1" id="Capa_1" x="0px" y="0px" viewBox="0 0 442 442" style="enable-background:new 0 0 442 442;" xml:space="preserve" data-lt-installed="true" width="512px" height="512px"><g><g>
	<path d="M377.271,64.729C335.529,22.988,280.031,0,221,0S106.471,22.988,64.729,64.729C22.988,106.471,0,161.969,0,221   s22.988,114.529,64.729,156.271C106.471,419.012,161.969,442,221,442s114.529-22.988,156.271-64.729   C419.012,335.529,442,280.031,442,221S419.012,106.471,377.271,64.729z M221,422c-110.832,0-201-90.168-201-201S110.168,20,221,20   s201,90.168,201,201S331.832,422,221,422z" data-original="#000000" class="active-path" data-old_color="#000000" fill="#C22E01"/>
	<path d="M221,40c-99.803,0-181,81.196-181,181s81.196,181,181,181c41.625,0,82.3-14.542,114.533-40.948   c4.272-3.5,4.898-9.8,1.399-14.072c-3.5-4.271-9.8-4.899-14.073-1.398C294.191,369.066,258.017,382,221,382   c-88.775,0-161-72.225-161-161S132.225,60,221,60c88.776,0,161,72.225,161,161c0,37.017-12.934,73.191-36.419,101.859   c-3.5,4.271-2.874,10.572,1.398,14.072c4.272,3.501,10.573,2.874,14.073-1.398C387.458,303.301,402,262.625,402,221   C402,121.196,320.804,40,221,40z" data-original="#000000" class="active-path" data-old_color="#000000" fill="#C22E01"/>
	<path d="M255.953,222.816l43.536-43.536c4.911-4.91,7.616-11.439,7.616-18.385c0-6.944-2.705-13.474-7.616-18.385   c-10.138-10.137-26.632-10.136-36.77,0L221,184.23l-62.932-62.931c-4.911-4.912-11.44-7.616-18.385-7.616   c-6.945,0-13.474,2.704-18.384,7.615c-4.911,4.91-7.616,11.439-7.616,18.385s2.705,13.475,7.615,18.385l64.749,64.749   c0.275,5.343,1.753,10.374,4.169,14.825l-68.918,68.918c-3.905,3.905-3.905,10.237,0,14.143c1.952,1.952,4.512,2.929,7.071,2.929   s5.119-0.977,7.071-2.929l68.918-68.918C209.311,254.472,214.98,256,221,256C239.69,256,255.005,241.274,255.953,222.816z    M276.861,156.653c2.34-2.339,6.146-2.34,8.485-0.001c1.133,1.134,1.758,2.641,1.758,4.243s-0.624,3.109-1.758,4.242   l-35.738,35.738c-2.322-3.291-5.194-6.163-8.485-8.485L276.861,156.653z M133.683,139.683c0-1.603,0.624-3.109,1.758-4.243   c1.133-1.133,2.64-1.757,4.242-1.757c1.603,0,3.109,0.624,4.243,1.758l56.95,56.95c-3.291,2.322-6.163,5.194-8.485,8.485   l-56.951-56.951C134.307,142.792,133.683,141.285,133.683,139.683z M221,236c-4.117,0-7.851-1.669-10.564-4.364   c-0.012-0.013-0.022-0.026-0.035-0.039c-0.012-0.012-0.026-0.022-0.038-0.034C207.669,228.851,206,225.117,206,221   c0-8.271,6.729-15,15-15s15,6.729,15,15S229.271,236,221,236z" data-original="#000000" class="active-path" data-old_color="#000000" fill="#C22E01"/>
	<path d="M105,211H90c-5.523,0-10,4.478-10,10s4.477,10,10,10h15c5.523,0,10-4.478,10-10S110.523,211,105,211z" data-original="#000000" class="active-path" data-old_color="#000000" fill="#C22E01"/>
	<path d="M231,105V90c0-5.522-4.477-10-10-10s-10,4.478-10,10v15c0,5.522,4.477,10,10,10S231,110.522,231,105z" data-original="#000000" class="active-path" data-old_color="#000000" fill="#C22E01"/>
	<path d="M362,221c0-5.522-4.477-10-10-10h-15c-5.523,0-10,4.478-10,10s4.477,10,10,10h15C357.523,231,362,226.522,362,221z" data-original="#000000" class="active-path" data-old_color="#000000" fill="#C22E01"/>
	<path d="M211,337v15c0,5.522,4.477,10,10,10s10-4.478,10-10v-15c0-5.522-4.477-10-10-10S211,331.478,211,337z" data-original="#000000" class="active-path" data-old_color="#000000" fill="#C22E01"/>
</g></g> </svg>
