<?xml version="1.0" encoding="UTF-8"?>
<svg width="748px" height="828px" viewBox="0 0 748 828" version="1.1" xmlns="http://www.w3.org/2000/svg" xmlns:xlink="http://www.w3.org/1999/xlink">
    <!-- Generator: Sketch 52.6 (67491) - http://www.bohemiancoding.com/sketch -->
    <title>Group</title>
    <desc>Created with Sketch.</desc>
    <g id="Page-1" stroke="none" stroke-width="1" fill="none" fill-rule="evenodd">
        <g id="Desktop-HD" transform="translate(-353.000000, -174.000000)" fill="#3F342E" fill-rule="nonzero">
            <g id="Group" transform="translate(355.000000, 115.000000)">
                <path id="Line-2" d="M363.5,868 L363.5,453 L363.5,451.5 L366.5,451.5 L366.5,453 L366.5,868 L374.5,868 L365,887 L355.5,868 L363.5,868 Z" opacity="0.04"></path>
                <path id="Line" d="M193.74464,175.325489 L-0.252624962,62.797519 L-1.550144,62.0448941 L-0.0448940808,59.449856 L1.25262496,60.202481 L195.24989,172.730451 L199.26389,165.81035 L210.932506,183.56122 L189.73064,182.245591 L193.74464,175.325489 Z" opacity="0.04"></path>
                <path id="Line-Copy-2" d="M193.74464,567.325489 L-0.252624962,454.797519 L-1.550144,454.044894 L-0.0448940808,451.449856 L1.25262496,452.202481 L195.24989,564.730451 L199.26389,557.81035 L210.932506,575.56122 L189.73064,574.245591 L193.74464,567.325489 Z" opacity="0.04"></path>
                <path id="Line-Copy" d="M726.74464,175.325489 L532.747375,62.797519 L531.449856,62.0448941 L532.955106,59.449856 L534.252625,60.202481 L728.24989,172.730451 L732.26389,165.81035 L743.932506,183.56122 L722.73064,182.245591 L726.74464,175.325489 Z" opacity="0.04"></path>
                <path id="Line-Copy-3" d="M726.74464,567.325489 L532.747375,454.797519 L531.449856,454.044894 L532.955106,451.449856 L534.252625,452.202481 L728.24989,564.730451 L732.26389,557.81035 L743.932506,575.56122 L722.73064,574.245591 L726.74464,567.325489 Z" opacity="0.04"></path>
                <g id="archive" transform="translate(225.000000, 174.000000)">
                    <path d="M279.0746,0 L14.9254,0 C6.6934,0 0,6.35896552 0,14.1796552 L0,79.1844828 C0,81.7587931 2.1903,83.8396552 4.9,83.8396552 L14.7,83.8396552 L14.7,242.068966 L14.7,265.344828 C14.7,267.919138 16.8903,270 19.6,270 L274.4,270 C277.1097,270 279.3,267.919138 279.3,265.344828 L279.3,242.068966 L279.3,83.8396552 L289.1,83.8396552 C291.8097,83.8396552 294,81.7587931 294,79.1844828 L294,14.1796552 C294,6.35896552 287.3066,0 279.0746,0 Z M269.5,260.689655 L24.5,260.689655 L24.5,246.724138 L269.5,246.724138 L269.5,260.689655 Z M269.5,237.413793 L24.5,237.413793 L24.5,83.8396552 L269.5,83.8396552 L269.5,237.413793 Z M284.2,74.5293103 L274.4,74.5293103 L19.6,74.5293103 L9.8,74.5293103 L9.8,14.1796552 C9.8,11.4936207 12.0981,9.31034483 14.9254,9.31034483 L279.0746,9.31034483 C281.9019,9.31034483 284.2,11.4936207 284.2,14.1796552 L284.2,74.5293103 Z" id="Shape"></path>
                    <path d="M78.9,186 L216.1,186 C218.8097,186 221,183.932625 221,181.375 L221,116.625 C221,114.067375 218.8097,112 216.1,112 L78.9,112 C76.1903,112 74,114.067375 74,116.625 L74,181.375 C74,183.932625 76.1903,186 78.9,186 Z M83.8,121.25 L211.2,121.25 L211.2,176.75 L83.8,176.75 L83.8,121.25 Z" id="Shape"></path>
                    <path d="M191.535714,18 L103.464286,18 C89.9746786,18 79,28.5421 79,41.5 C79,54.4579 89.9746786,65 103.464286,65 L191.535714,65 C205.025321,65 216,54.4579 216,41.5 C216,28.5421 205.025321,18 191.535714,18 Z M191.535714,55.6 L103.464286,55.6 C95.3715,55.6 88.7857143,49.2738 88.7857143,41.5 C88.7857143,33.7262 95.3715,27.4 103.464286,27.4 L191.535714,27.4 C199.6285,27.4 206.214286,33.7262 206.214286,41.5 C206.214286,49.2738 199.6285,55.6 191.535714,55.6 Z" id="Shape"></path>
                </g>
            </g>
        </g>
    </g>
</svg>