<?xml version="1.0" encoding="UTF-8"?>
<svg width="749px" height="828px" viewBox="0 0 749 828" version="1.1" xmlns="http://www.w3.org/2000/svg" xmlns:xlink="http://www.w3.org/1999/xlink">
    <!-- Generator: Sketch 52.6 (67491) - http://www.bohemiancoding.com/sketch -->
    <title>Group 2</title>
    <desc>Created with Sketch.</desc>
    <g id="Page-1" stroke="none" stroke-width="1" fill="none" fill-rule="evenodd">
        <g id="Desktop-HD" transform="translate(-353.000000, -174.000000)" fill="#3F342E" fill-rule="nonzero">
            <g id="Group-2" transform="translate(355.000000, 176.000000)">
                <path id="Line-2" d="M363.5,807 L363.5,392 L363.5,390.5 L366.5,390.5 L366.5,392 L366.5,807 L374.5,807 L365,826 L355.5,807 L363.5,807 Z" opacity="0.04"></path>
                <path id="Line" d="M193.74464,114.325489 L-0.252624962,1.79751904 L-1.550144,1.04489408 L-0.0448940808,-1.550144 L1.25262496,-0.797519043 L195.24989,111.730451 L199.26389,104.81035 L210.932506,122.56122 L189.73064,121.245591 L193.74464,114.325489 Z" opacity="0.04"></path>
                <g id="archive" transform="translate(225.000000, 113.000000)">
                    <path d="M279.0746,0 L14.9254,0 C6.6934,0 0,6.35896552 0,14.1796552 L0,79.1844828 C0,81.7587931 2.1903,83.8396552 4.9,83.8396552 L14.7,83.8396552 L14.7,242.068966 L14.7,265.344828 C14.7,267.919138 16.8903,270 19.6,270 L274.4,270 C277.1097,270 279.3,267.919138 279.3,265.344828 L279.3,242.068966 L279.3,83.8396552 L289.1,83.8396552 C291.8097,83.8396552 294,81.7587931 294,79.1844828 L294,14.1796552 C294,6.35896552 287.3066,0 279.0746,0 Z M269.5,260.689655 L24.5,260.689655 L24.5,246.724138 L269.5,246.724138 L269.5,260.689655 Z M269.5,237.413793 L24.5,237.413793 L24.5,83.8396552 L269.5,83.8396552 L269.5,237.413793 Z M284.2,74.5293103 L274.4,74.5293103 L19.6,74.5293103 L9.8,74.5293103 L9.8,14.1796552 C9.8,11.4936207 12.0981,9.31034483 14.9254,9.31034483 L279.0746,9.31034483 C281.9019,9.31034483 284.2,11.4936207 284.2,14.1796552 L284.2,74.5293103 Z" id="Shape"></path>
                    <path d="M78.9,186 L216.1,186 C218.8097,186 221,183.932625 221,181.375 L221,116.625 C221,114.067375 218.8097,112 216.1,112 L78.9,112 C76.1903,112 74,114.067375 74,116.625 L74,181.375 C74,183.932625 76.1903,186 78.9,186 Z M83.8,121.25 L211.2,121.25 L211.2,176.75 L83.8,176.75 L83.8,121.25 Z" id="Shape"></path>
                    <path d="M191.535714,18 L103.464286,18 C89.9746786,18 79,28.5421 79,41.5 C79,54.4579 89.9746786,65 103.464286,65 L191.535714,65 C205.025321,65 216,54.4579 216,41.5 C216,28.5421 205.025321,18 191.535714,18 Z M191.535714,55.6 L103.464286,55.6 C95.3715,55.6 88.7857143,49.2738 88.7857143,41.5 C88.7857143,33.7262 95.3715,27.4 103.464286,27.4 L191.535714,27.4 C199.6285,27.4 206.214286,33.7262 206.214286,41.5 C206.214286,49.2738 199.6285,55.6 191.535714,55.6 Z" id="Shape"></path>
                </g>
                <path id="Line-3" d="M548.264188,111.750772 L743.759666,-1.2985203 L745.058186,-2.04941645 L746.559979,0.547624157 L745.261458,1.2985203 L549.76598,114.347813 L553.770759,121.273254 L532.56716,122.560644 L544.259408,104.82533 L548.264188,111.750772 Z" opacity="0.1"></path>
                <path id="Line-4" d="M549.738081,400.021013 L744.755425,513.704109 L746.051316,514.459534 L744.540466,517.051316 L743.244575,516.295891 L548.227232,402.612795 L544.1983,409.524214 L532.568036,391.748192 L553.767012,393.109594 L549.738081,400.021013 Z" opacity="0.1"></path>
                <path id="Line-5" d="M195.772768,402.612795 L0.75542464,516.295891 L-0.540466409,517.051316 L-2.05131569,514.459534 L-0.75542464,513.704109 L194.261919,400.021013 L190.232988,393.109594 L211.431964,391.748192 L199.8017,409.524214 L195.772768,402.612795 Z" opacity="0.1"></path>
            </g>
        </g>
    </g>
</svg>