<svg xmlns="http://www.w3.org/2000/svg" viewBox="0 0 628.12 426.6"><defs><style>.cls-1{fill:#f0f8fa;}.cls-2{fill:none;stroke:#bde3e5;stroke-miterlimit:10;stroke-width:6px;}.cls-3{fill:#12aaaf;}</style></defs><title>icon4</title><g id="Слой_2" data-name="Слой 2"><g id="Capa_1" data-name="Capa 1"><circle class="cls-1" cx="329.06" cy="213.28" r="203"/><circle class="cls-2" cx="103.2" cy="18.14" r="15.14"/><circle class="cls-2" cx="569.2" cy="381.14" r="15.14"/><line class="cls-2" y1="359.86" x2="84" y2="359.86"/><line class="cls-2" x1="92.67" y1="359.86" x2="112.67" y2="359.86"/><line class="cls-2" x1="515.45" y1="16.37" x2="599.45" y2="16.37"/><line class="cls-2" x1="608.12" y1="16.37" x2="628.12" y2="16.37"/><path class="cls-3" d="M532.24,123.61a27.67,27.67,0,0,0-53.37-4.76l-85.09-7.74a41.34,41.34,0,0,0-3.25-13.26l61-39.47A27.65,27.65,0,1,0,442.48,38a27.13,27.13,0,0,0,1.53,8.7L383,86.25A41.51,41.51,0,0,0,314.11,98L240.86,80.42a62.4,62.4,0,1,0-69.71,54.13q2.82.34,5.67.45l6,77.66a41.55,41.55,0,0,0-9.49,77l-27.13,81.36c-.63,0-1.22-.18-1.87-.18a27.86,27.86,0,1,0,15.06,4.5l27.1-81.32a38,38,0,0,0,12.76,0l27.11,81.32a27.66,27.66,0,1,0,15-4.5c-.65,0-1.24.14-1.87.18L212.39,289.7a41.6,41.6,0,0,0-15.77-78.12l-6-77.6A62.56,62.56,0,0,0,237.6,93.9l73.27,17.59c-.06.93-.14,1.87-.14,2.82a41.6,41.6,0,0,0,81.78,10.61l85.09,7.74a27.69,27.69,0,1,0,54.64-9Zm-62-99.45A13.87,13.87,0,1,1,456.34,38,13.87,13.87,0,0,1,470.21,24.16ZM144.31,412.47a13.87,13.87,0,1,1,13.87-13.87A13.87,13.87,0,0,1,144.31,412.47Zm97.08-27.73a13.87,13.87,0,1,1-13.87,13.86A13.86,13.86,0,0,1,241.39,384.74ZM192.85,225.25A27.74,27.74,0,1,1,165.11,253,27.74,27.74,0,0,1,192.85,225.25ZM179,121.24A48.54,48.54,0,1,1,227.52,72.7,48.54,48.54,0,0,1,179,121.24ZM352.33,142a27.74,27.74,0,1,1,27.74-27.73A27.73,27.73,0,0,1,352.33,142Zm152.55,0a13.87,13.87,0,1,1,13.87-13.86A13.87,13.87,0,0,1,504.88,142Z"/><path class="cls-3" d="M479.12,302.16a63.24,63.24,0,0,0-8.91-.63A62.46,62.46,0,0,0,412,341.58L352.15,326c.11-1.21.18-2.41.18-3.64a41.37,41.37,0,0,0-9.66-26.61l39.13-45.65A27.52,27.52,0,0,0,393.94,253a27.87,27.87,0,1,0-22.71-11.9l-39.1,45.63a41.3,41.3,0,0,0-21.4-6c-.69,0-1.39.07-2.08.11L295.59,222.1a27.62,27.62,0,1,0-13.53,3.06l13,58.65a41.61,41.61,0,1,0,53.57,55.57L408.5,355a62.36,62.36,0,1,0,70.62-52.84Zm-85.18-90.78a13.87,13.87,0,1,1-13.87,13.87A13.87,13.87,0,0,1,393.94,211.38Zm-110.95,0a13.87,13.87,0,1,1,13.87-13.86A13.86,13.86,0,0,1,283,211.38Zm27.74,138.68a27.74,27.74,0,1,1,27.74-27.73A27.73,27.73,0,0,1,310.73,350.06Zm159.48,62.41a48.54,48.54,0,1,1,48.54-48.54A48.54,48.54,0,0,1,470.21,412.47Z"/></g></g></svg>