<svg xmlns="http://www.w3.org/2000/svg" viewBox="0 0 628.12 424.73"><defs><style>.cls-1{fill:#f0f8fa;}.cls-2{fill:none;stroke:#bde3e5;stroke-miterlimit:10;stroke-width:6px;}.cls-3{fill:#12aaaf;}</style></defs><title>icon2</title><g id="Слой_2" data-name="Слой 2"><g id="Capa_1" data-name="Capa 1"><circle class="cls-1" cx="329.06" cy="221.73" r="203"/><circle class="cls-2" cx="103.2" cy="26.59" r="15.14"/><circle class="cls-2" cx="569.2" cy="389.59" r="15.14"/><line class="cls-2" y1="368.31" x2="84" y2="368.31"/><line class="cls-2" x1="92.67" y1="368.31" x2="112.67" y2="368.31"/><line class="cls-2" x1="515.45" y1="24.83" x2="599.45" y2="24.83"/><line class="cls-2" x1="608.12" y1="24.83" x2="628.12" y2="24.83"/><path class="cls-3" d="M231.6,213.9A32.41,32.41,0,1,0,264,246.3,32.41,32.41,0,0,0,231.6,213.9Zm0,51.85A19.45,19.45,0,1,1,251,246.3,19.45,19.45,0,0,1,231.6,265.75Z"/><path class="cls-3" d="M333.58,290.87l-31.71-45.3a18.3,18.3,0,0,0-30.21,20.64l12.65,19H178.89l12.65-19a18.3,18.3,0,0,0-30.22-20.64l-31.7,45.3a21.12,21.12,0,0,0,17.3,33.22h45.79v58.33a6.48,6.48,0,0,0,6.48,6.48H264a6.48,6.48,0,0,0,6.48-6.48V324.09h45.79a21.12,21.12,0,0,0,17.3-33.22ZM321,309.65a8.16,8.16,0,0,1-4.71,1.47H264a6.48,6.48,0,0,0-6.48,6.48v58.34H205.67V317.6a6.48,6.48,0,0,0-6.48-6.48H146.92a8.15,8.15,0,0,1-6.68-12.82L172,253a5.34,5.34,0,0,1,8.81,6l-19.39,29.06a6.48,6.48,0,0,0,5.39,10.08H296.42a6.48,6.48,0,0,0,5.39-10.08L282.44,259a5.34,5.34,0,0,1,8.81-6L323,298.3A8.15,8.15,0,0,1,321,309.65Z"/><path class="cls-3" d="M244.56,97.23H225.12a19.44,19.44,0,0,0-19.45,19.44h13a6.48,6.48,0,0,1,6.48-6.48h19.44a6.48,6.48,0,0,1,0,13,19.44,19.44,0,0,0-19.44,19.45h13a6.48,6.48,0,0,1,6.48-6.48,19.45,19.45,0,1,0,0-38.89Z"/><rect class="cls-3" x="225.12" y="149.08" width="12.96" height="12.96"/><path class="cls-3" d="M231.6,71.3c-39.31,0-71.3,26.17-71.3,58.33,0,26.22,21.16,49,51.77,56.06l14.34,19.13a6.48,6.48,0,0,0,9.08,1.3,6.36,6.36,0,0,0,1.29-1.3l14.35-19.13c30.6-7.08,51.77-29.84,51.77-56.06C302.9,97.47,270.91,71.3,231.6,71.3Zm14.51,102.22a6.54,6.54,0,0,0-3.89,2.46L231.6,190.13,221,176a6.54,6.54,0,0,0-3.89-2.46c-25.82-5.18-43.84-23.22-43.84-43.89,0-25,26.17-45.37,58.34-45.37s58.33,20.36,58.33,45.37C289.93,150.3,271.92,168.34,246.11,173.52Z"/><path class="cls-3" d="M419.57,129.63A32.41,32.41,0,1,0,452,162,32.45,32.45,0,0,0,419.57,129.63Zm0,51.86A19.45,19.45,0,1,1,439,162,19.45,19.45,0,0,1,419.57,181.49Z"/><path class="cls-3" d="M458.46,0H380.68a32.45,32.45,0,0,0-32.41,32.41V71.3a32.45,32.45,0,0,0,32.41,32.41h16.76L415,121.25a6.48,6.48,0,0,0,9.16,0l17.55-17.54h16.76A32.45,32.45,0,0,0,490.87,71.3V32.41A32.45,32.45,0,0,0,458.46,0ZM477.9,71.3a19.44,19.44,0,0,1-19.44,19.44H439a6.51,6.51,0,0,0-4.58,1.9l-14.86,14.87L404.71,92.64a6.53,6.53,0,0,0-4.59-1.9H380.68A19.44,19.44,0,0,1,361.23,71.3V32.41A19.45,19.45,0,0,1,380.68,13h77.78A19.44,19.44,0,0,1,477.9,32.41Z"/><path class="cls-3" d="M494.11,175.27a19.43,19.43,0,0,0-22.69,19.18v6.48H367.71V169.22a20,20,0,0,0-16.2-19.88,19.44,19.44,0,0,0-22.41,15.93,19.72,19.72,0,0,0-.28,3.25v32.41a38.93,38.93,0,0,0,38.89,38.89h13v31.84l-15.4,87.24a25.57,25.57,0,0,0,50.4,8.65l3.89-23.48,3.89,23.48a25.55,25.55,0,0,0,50.37-8.65l-15.37-87.24V239.82h13a38.93,38.93,0,0,0,38.89-38.89v-5.79A20,20,0,0,0,494.11,175.27Zm3.24,25.66a25.93,25.93,0,0,1-25.93,25.93H452a6.48,6.48,0,0,0-6.48,6.48v38.89a5.34,5.34,0,0,0,.1,1.13l15.49,87.8a12.59,12.59,0,1,1-24.8,4.39.59.59,0,0,1,0-.13L426,303.58a6.48,6.48,0,0,0-12.78,0l-10.31,61.83a12.59,12.59,0,1,1-24.87-4c0-.09,0-.18.05-.27l15.49-87.8a6.09,6.09,0,0,0,.1-1.13V233.34a6.48,6.48,0,0,0-6.48-6.48H367.71a25.93,25.93,0,0,1-25.92-25.93V168.52a6.48,6.48,0,0,1,6.48-6.48,6.09,6.09,0,0,1,1.13.1,7,7,0,0,1,5.35,7.08v31.71a13,13,0,0,0,13,13H471.42a13,13,0,0,0,13-13v-6.48a6.47,6.47,0,0,1,7.61-6.38,7,7,0,0,1,5.35,7.07Z"/><path class="cls-3" d="M450.24,27.83a6.48,6.48,0,0,0-9.17-.16c-.05,0-.11.1-.16.16L406.6,62.13l-8.38-8.38a6.48,6.48,0,0,0-9.16,9.17l13,13a6.49,6.49,0,0,0,9.17,0L450.08,37A6.49,6.49,0,0,0,450.24,27.83Z"/></g></g></svg>