<svg xmlns="http://www.w3.org/2000/svg" viewBox="0 0 628.12 416.28"><defs><style>.cls-1{fill:#f0f8fa;}.cls-2{fill:none;stroke:#bde3e5;stroke-miterlimit:10;stroke-width:6px;}.cls-3{fill:#bde3e5;}.cls-4{fill:#12aaaf;}</style></defs><title>icon3</title><g id="Слой_2" data-name="Слой 2"><g id="Capa_1" data-name="Capa 1"><circle class="cls-1" cx="329.06" cy="213.28" r="203"/><circle class="cls-2" cx="103.2" cy="18.14" r="15.14"/><circle class="cls-2" cx="569.2" cy="381.14" r="15.14"/><line class="cls-2" y1="359.86" x2="84" y2="359.86"/><line class="cls-2" x1="92.67" y1="359.86" x2="112.67" y2="359.86"/><line class="cls-2" x1="515.45" y1="16.37" x2="599.45" y2="16.37"/><line class="cls-2" x1="608.12" y1="16.37" x2="628.12" y2="16.37"/><path class="cls-3" d="M359.05,126.82a18.12,18.12,0,0,0-18.12,18.12v6H353v-6a6,6,0,1,1,12.08,0v6h12.08v-6A18.12,18.12,0,0,0,359.05,126.82Z"/><path class="cls-3" d="M419.45,126.82a18.12,18.12,0,0,0-18.12,18.12v6h12.08v-6a6,6,0,0,1,12.09,0v6h12.08v-6A18.13,18.13,0,0,0,419.45,126.82Z"/><path class="cls-3" d="M401.33,169.1v6a12.08,12.08,0,1,1-24.16,0v-6H365.09v6a24.16,24.16,0,0,0,48.32,0v-6Z"/><path class="cls-4" d="M449.66,223.46H419.45v-6.64a71.9,71.9,0,0,0,41.25-53.76h7.08a18.12,18.12,0,0,0,0-36.24h-6V30.17H371.13a54.43,54.43,0,0,0-54.36,54.37v42.28h-6a18.12,18.12,0,0,0,0,36.24h7.07a71.92,71.92,0,0,0,41.25,53.76v6.64h-30.2a42.33,42.33,0,0,0-42.28,42.29v6H250.33v-6a18.13,18.13,0,0,0-18.13-18.12H208a18.12,18.12,0,0,0-18.12,18.12v6H135.56a6,6,0,0,0-6,6V386.55a6,6,0,0,0,6,6H485.9a6,6,0,0,0,6-6V265.75A42.34,42.34,0,0,0,449.66,223.46Zm12.08-84.56h6a6,6,0,1,1,0,12.08h-6ZM316.77,151h-6a6,6,0,0,1,0-12.08h6Zm120.81,84.57-24.82,33.08-1.12-1.11-13.85-13.85,18.13-18.12Zm-38.75,36.24-6,6h-7.08l-6-6,9.58-9.58Zm-19.16-36.24h19.16l-9.58,9.58Zm-50.82-151a42.34,42.34,0,0,1,42.28-42.29h78.53V78.5H395.29v6a18.12,18.12,0,0,1-18.12,18.12H328.85Zm0,66.44V114.74h48.32a30.26,30.26,0,0,0,29.6-24.16h42.89V151a60,60,0,0,1-38.44,56.22,6.07,6.07,0,0,0-3.85,5.63v10.63H371.13V212.83a6,6,0,0,0-3.84-5.63A60,60,0,0,1,328.85,151Zm33.74,84.57,18.12,18.12-13.85,13.85-1.12,1.11-24.81-33.08ZM202,265.75a6,6,0,0,1,6-6H232.2a6,6,0,0,1,6.05,6v6H202Zm96.65,114.76h-157V338.23H202v18.12a6,6,0,0,0,6,6H232.2a6,6,0,0,0,6.05-6V338.23h60.4Zm-84.57-30.2V338.23h12.08v12.08Zm84.57-24.16h-157V283.87h157Zm12.08,54.36V277.83a6,6,0,0,0-6-6h-6v-6A30.14,30.14,0,0,1,326,235.83l34.22,45.62a6,6,0,0,0,4.4,2.42h.43a6,6,0,0,0,4.27-1.77l1.77-1.77,5.61,5.61-11.56,69.42A6,6,0,0,0,366.3,360l15.4,20.53Zm66.79-25.72,10.81-64.88h1.85L401,354.79l-11.74,15.65Zm102.34,25.72H396.8L412.21,360a6.07,6.07,0,0,0,1.12-4.62l-11.57-69.42,5.61-5.61,1.77,1.77a6.07,6.07,0,0,0,4.27,1.77h.43a6.06,6.06,0,0,0,4.41-2.42l34.22-45.62a30.15,30.15,0,0,1,27.39,29.92Z"/></g></g></svg>