<svg xmlns="http://www.w3.org/2000/svg" viewBox="0 0 628.12 480"><defs><style>.cls-1{fill:#f0f8fa;}.cls-2{fill:#b8e6e7;}.cls-3{fill:#26a2a6;}.cls-4,.cls-5{fill:none;stroke-miterlimit:10;stroke-width:6px;}.cls-4{stroke:#bde3e5;}.cls-5{stroke:#12aaaf;}</style></defs><title>icon1</title><g id="Слой_2" data-name="Слой 2"><g id="Capa_1" data-name="Capa 1"><circle class="cls-1" cx="329.06" cy="269.28" r="203"/><path class="cls-2" d="M341,216H325a8,8,0,0,1-8-8v-8a8,8,0,0,1,8-8h16a8,8,0,0,1,8,8h16a24,24,0,0,0-24-24V160H325v16a24,24,0,0,0-24,24v8a24,24,0,0,0,24,24h16a8,8,0,0,1,8,8v8a8,8,0,0,1-8,8H325a8,8,0,0,1-8-8H301a24,24,0,0,0,24,24v16h16V272a24,24,0,0,0,24-24v-8A24,24,0,0,0,341,216Z"/><path class="cls-3" d="M414.94,125.78A24,24,0,0,0,405,80h-6.24l7.55-37.7A35.37,35.37,0,0,0,378.53.69,34.9,34.9,0,0,0,371.62,0,43.06,43.06,0,0,0,341,12.69a11.57,11.57,0,0,1-16,0A43,43,0,0,0,294.35,0,35.38,35.38,0,0,0,259,35.38a35.77,35.77,0,0,0,.69,6.92L267.22,80H261a24,24,0,0,0-10,45.78,128,128,0,1,0,163.91,0ZM290.54,16.38a19.46,19.46,0,0,1,3.81-.38,27.12,27.12,0,0,1,19.31,8,28,28,0,0,0,38.64,0,27.14,27.14,0,0,1,19.32-8A19.37,19.37,0,0,1,391,35.39a18.8,18.8,0,0,1-.39,3.81L382.42,80H283.54l-8.16-40.8A19.38,19.38,0,0,1,290.54,16.38ZM261,96H405a8,8,0,0,1,0,16H261a8,8,0,0,1,0-16ZM333,336.05a112,112,0,0,1-57.66-208h115.2A112,112,0,0,1,333,336.05Z"/><path class="cls-3" d="M508.42,361.06h0a30.32,30.32,0,0,0-22-9.06,30.66,30.66,0,0,0-21.95,9.1C453.66,372,432.67,393,425.66,400H389a32,32,0,0,0-32-32H317a8,8,0,0,0-4.8,1.6L282.32,392H245v-8a8,8,0,0,0-8-8H157a8,8,0,0,0-8,8v88a8,8,0,0,0,8,8h80a8,8,0,0,0,8-8v-8H425.1a55.64,55.64,0,0,0,39.6-16.41l43.68-43.68A30.64,30.64,0,0,0,508.42,361.06ZM229,464H165V392h64Zm268.08-71.4-43.68,43.68A39.69,39.69,0,0,1,425.1,448H245V408h40a8,8,0,0,0,4.8-1.6L319.65,384H357a16,16,0,0,1,0,32H325v16h32a32,32,0,0,0,27.71-16H429a8,8,0,0,0,5.66-2.34s28.06-28.08,41.19-41.29a15,15,0,0,1,11-4.37A14.25,14.25,0,0,1,497,372.28,14.57,14.57,0,0,1,501.13,383,13.77,13.77,0,0,1,497.06,392.6Z"/><rect class="cls-2" x="196.98" y="432" width="16" height="16"/><circle class="cls-4" cx="103.2" cy="74.14" r="15.14"/><circle class="cls-4" cx="569.2" cy="437.14" r="15.14"/><line class="cls-4" y1="415.86" x2="84" y2="415.86"/><line class="cls-4" x1="92.67" y1="415.86" x2="112.67" y2="415.86"/><line class="cls-4" x1="515.45" y1="72.37" x2="599.45" y2="72.37"/><line class="cls-4" x1="608.12" y1="72.37" x2="628.12" y2="72.37"/><circle class="cls-5" cx="547.2" cy="223.14" r="15.14"/></g></g></svg>