<svg xmlns="http://www.w3.org/2000/svg" xmlns:xlink="http://www.w3.org/1999/xlink" viewBox="0 0 80.58 60.93"><defs><style>.cls-1{filter:url(#luminosity-noclip-3);}.cls-2{mask:url(#mask);}.cls-3,.cls-4,.cls-8,.cls-9{mix-blend-mode:multiply;}.cls-3{fill:url(#linear-gradient);}.cls-4{fill:url(#linear-gradient-2);}.cls-5{isolation:isolate;}.cls-6{fill:url(#linear-gradient-3);}.cls-7{mask:url(#mask-3);}.cls-8,.cls-9{opacity:0.8;}.cls-8{fill:url(#linear-gradient-4);}.cls-9{fill:url(#linear-gradient-5);}.cls-10{fill:url(#linear-gradient-6);}.cls-11{fill:url(#linear-gradient-7);}.cls-12{fill:url(#linear-gradient-8);}.cls-13{fill:url(#linear-gradient-9);}.cls-14{fill:url(#linear-gradient-10);}.cls-15{fill:url(#linear-gradient-11);}.cls-16{fill:url(#linear-gradient-12);}.cls-17{fill:url(#linear-gradient-13);}.cls-18{fill:url(#linear-gradient-14);}.cls-19{fill:url(#linear-gradient-15);}.cls-20{fill:url(#linear-gradient-16);}.cls-21{fill:url(#linear-gradient-17);}.cls-22{fill:url(#linear-gradient-18);}.cls-23{fill:url(#linear-gradient-19);}.cls-24{fill:#e7e1ff;}.cls-25{opacity:0.5;fill:url(#linear-gradient-20);}.cls-26,.cls-27{mix-blend-mode:overlay;}.cls-26{fill:url(#linear-gradient-21);}.cls-28{fill:url(#linear-gradient-22);}.cls-29{fill:url(#linear-gradient-23);}.cls-30{filter:url(#luminosity-noclip);}</style><filter id="luminosity-noclip" x="0" y="-8319.46" width="80.58" height="32766" filterUnits="userSpaceOnUse" color-interpolation-filters="sRGB"><feFlood flood-color="#fff" result="bg"/><feBlend in="SourceGraphic" in2="bg"/></filter><mask id="mask" x="0" y="-8319.46" width="80.58" height="32766" maskUnits="userSpaceOnUse"><g class="cls-30"/></mask><linearGradient id="linear-gradient" x1="294.04" y1="444.9" x2="292.94" y2="442.96" gradientTransform="matrix(-0.94, -0.17, -0.14, 0.98, 367.07, -340.36)" gradientUnits="userSpaceOnUse"><stop offset="0" stop-color="#fff"/><stop offset="1"/></linearGradient><linearGradient id="linear-gradient-2" x1="270.66" y1="452.41" x2="272" y2="450.1" xlink:href="#linear-gradient"/><linearGradient id="linear-gradient-3" x1="278.79" y1="429.53" x2="273.49" y2="429.53" gradientTransform="matrix(-0.94, -0.17, -0.14, 0.98, 367.07, -340.36)" gradientUnits="userSpaceOnUse"><stop offset="0" stop-color="#a688ff"/><stop offset="1" stop-color="#c0abff"/></linearGradient><filter id="luminosity-noclip-3" x="0" y="8.67" width="80.58" height="52.26" filterUnits="userSpaceOnUse" color-interpolation-filters="sRGB"><feFlood flood-color="#fff" result="bg"/><feBlend in="SourceGraphic" in2="bg"/></filter><mask id="mask-3" x="0" y="8.67" width="80.58" height="52.26" maskUnits="userSpaceOnUse"><g id="_Группа_3" data-name="&lt;Группа&gt;" class="cls-1"><g class="cls-2"><path id="_Контур_" data-name="&lt;Контур&gt;" class="cls-3" d="M1.61,19.35c1.8-1.39,1.64.12,1.07,1.87L33.85,8.86a4.14,4.14,0,0,1,4,.85l38.4,33c1.82-.52,3.42-.51,4,.83,1,2.41-.07,3.45-.89,4.05a2.39,2.39,0,0,1-.74.42l0,0-32,12.67a4.08,4.08,0,0,1-3.93-.84L1.34,24.37S-1.85,22,1.61,19.35Z"/></g></g></mask><linearGradient id="linear-gradient-4" x1="294.04" y1="444.9" x2="292.94" y2="442.96" gradientTransform="matrix(-0.94, -0.17, -0.14, 0.98, 367.07, -340.36)" gradientUnits="userSpaceOnUse"><stop offset="0" stop-color="#3300bf"/><stop offset="1" stop-color="#c0abff"/></linearGradient><linearGradient id="linear-gradient-5" x1="270.66" y1="452.41" x2="272" y2="450.1" xlink:href="#linear-gradient-4"/><linearGradient id="linear-gradient-6" x1="389.62" y1="515.42" x2="286.76" y2="421.09" gradientTransform="matrix(-0.94, -0.15, -0.13, 0.99, 365.49, -340.75)" gradientUnits="userSpaceOnUse"><stop offset="0" stop-color="#9c74ff"/><stop offset="1" stop-color="#fff6ff"/></linearGradient><linearGradient id="linear-gradient-7" x1="269.66" y1="440.77" x2="515.42" y2="214.45" gradientTransform="matrix(-0.94, -0.17, -0.14, 0.98, 367.07, -340.36)" gradientUnits="userSpaceOnUse"><stop offset="0" stop-color="#0e9cff"/><stop offset="1" stop-color="#fff6ff"/></linearGradient><linearGradient id="linear-gradient-8" x1="254.51" y1="417.24" x2="391.27" y2="419.03" gradientTransform="matrix(-0.94, -0.17, -0.14, 0.98, 367.07, -340.36)" gradientUnits="userSpaceOnUse"><stop offset="0" stop-color="#4f47ff"/><stop offset="1" stop-color="#13ffe2"/></linearGradient><linearGradient id="linear-gradient-9" x1="253.55" y1="445.3" x2="257" y2="451.26" gradientTransform="matrix(-0.93, -0.18, -0.16, 0.98, 370.13, -341.52)" xlink:href="#linear-gradient-8"/><linearGradient id="linear-gradient-10" x1="254.79" y1="444.59" x2="261.4" y2="456.02" gradientTransform="matrix(-0.93, -0.18, -0.16, 0.98, 370.13, -341.52)" xlink:href="#linear-gradient-8"/><linearGradient id="linear-gradient-11" x1="306.69" y1="410.9" x2="312.11" y2="414" gradientTransform="matrix(-0.94, -0.17, -0.14, 0.98, 367.07, -340.36)" gradientUnits="userSpaceOnUse"><stop offset="0" stop-color="#ff4aff"/><stop offset="1" stop-color="#13ffe2"/></linearGradient><linearGradient id="linear-gradient-12" x1="307.99" y1="410.9" x2="313.28" y2="416.29" xlink:href="#linear-gradient-8"/><linearGradient id="linear-gradient-13" x1="285.05" y1="448.72" x2="290.03" y2="446.65" gradientTransform="matrix(-0.94, -0.17, -0.14, 0.98, 367.07, -340.36)" gradientUnits="userSpaceOnUse"><stop offset="0" stop-color="#3818d6"/><stop offset="1" stop-color="#13ffe2"/></linearGradient><linearGradient id="linear-gradient-14" x1="293.16" y1="446.27" x2="290.66" y2="443.98" xlink:href="#linear-gradient-6"/><linearGradient id="linear-gradient-15" x1="288.09" y1="446.99" x2="293.07" y2="444.92" xlink:href="#linear-gradient-13"/><linearGradient id="linear-gradient-16" x1="296.18" y1="444.5" x2="293.67" y2="442.21" xlink:href="#linear-gradient-6"/><linearGradient id="linear-gradient-17" x1="283.45" y1="449.77" x2="285.53" y2="448.9" xlink:href="#linear-gradient-13"/><linearGradient id="linear-gradient-18" x1="290.12" y1="446.94" x2="288.53" y2="445.49" xlink:href="#linear-gradient-6"/><linearGradient id="linear-gradient-19" x1="282.3" y1="342.18" x2="283.12" y2="343.61" gradientTransform="matrix(-0.91, 0.26, -0.26, 1.11, 397.17, -396.03)" xlink:href="#linear-gradient-8"/><linearGradient id="linear-gradient-20" x1="249.28" y1="438.39" x2="319.72" y2="407.97" xlink:href="#linear-gradient-7"/><linearGradient id="linear-gradient-21" x1="249.09" y1="434.15" x2="320.24" y2="403.43" xlink:href="#linear-gradient-7"/><linearGradient id="linear-gradient-22" x1="151.67" y1="300.75" x2="151.67" y2="284.86" gradientTransform="matrix(-0.88, 0.35, 0.85, 0.74, -66.85, -227.65)" gradientUnits="userSpaceOnUse"><stop offset="0" stop-color="#0e9cff"/><stop offset="1" stop-color="#fff"/></linearGradient><linearGradient id="linear-gradient-23" x1="149.85" y1="299.18" x2="149.85" y2="283.29" xlink:href="#linear-gradient-22"/></defs><title>item2</title><g class="cls-5"><g id="Слой_2" data-name="Слой 2"><g id="content"><g id="_8" data-name="8"><g id="_Группа_5" data-name="&lt;Группа&gt;"><g id="_10" data-name="10"><g id="_Группа_6" data-name="&lt;Группа&gt;"><path id="_Контур_3" data-name="&lt;Контур&gt;" class="cls-6" d="M1.61,19.35c1.8-1.39,1.64.12,1.07,1.87L33.85,8.86a4.14,4.14,0,0,1,4,.85l38.4,33c1.82-.52,3.42-.51,4,.83,1,2.41-.07,3.45-.89,4.05a2.39,2.39,0,0,1-.74.42l0,0-32,12.67a4.08,4.08,0,0,1-3.93-.84L1.34,24.37S-1.85,22,1.61,19.35Z"/><g class="cls-7"><path id="_Контур_4" data-name="&lt;Контур&gt;" class="cls-8" d="M1.61,19.35c1.8-1.39,1.64.12,1.07,1.87L33.85,8.86a4.14,4.14,0,0,1,4,.85l38.4,33c1.82-.52,3.42-.51,4,.83,1,2.41-.07,3.45-.89,4.05a2.39,2.39,0,0,1-.74.42l0,0-32,12.67a4.08,4.08,0,0,1-3.93-.84L1.34,24.37S-1.85,22,1.61,19.35Z"/></g><g class="cls-7"><path id="_Контур_5" data-name="&lt;Контур&gt;" class="cls-9" d="M1.61,19.35c1.8-1.39,1.64.12,1.07,1.87L33.85,8.86a4.14,4.14,0,0,1,4,.85l38.4,33c1.82-.52,3.42-.51,4,.83,1,2.41-.07,3.45-.89,4.05a2.39,2.39,0,0,1-.74.42l0,0-32,12.67a4.08,4.08,0,0,1-3.93-.84L1.34,24.37S-1.85,22,1.61,19.35Z"/></g><path id="_Контур_6" data-name="&lt;Контур&gt;" class="cls-10" d="M79.65,42.77,38.23,7.14a4.13,4.13,0,0,0-4-.85L2.23,19a1.82,1.82,0,0,0-.54,3.09L43,57.6a4.06,4.06,0,0,0,3.92.84l32-12.67C80.45,45.12,80.58,43.68,79.65,42.77Z"/><path id="_Контур_7" data-name="&lt;Контур&gt;" class="cls-11" d="M77.53,42.94,43.62,56.06a.75.75,0,0,1-.71-.16L3.68,22.29a.27.27,0,0,1,.08-.46L37.64,8.55a.64.64,0,0,1,.65.13L77.6,42.52A.25.25,0,0,1,77.53,42.94Z"/><path id="_Контур_8" data-name="&lt;Контур&gt;" class="cls-12" d="M77.58,42.87,38.28,9a.68.68,0,0,0-.65-.14L3.74,22.18l-.08.05a.27.27,0,0,1,.13-.41L37.67,8.54a.65.65,0,0,1,.65.14L77.63,42.51a.25.25,0,0,1,0,.39Z"/><g id="_Группа_7" data-name="&lt;Группа&gt;"><path id="_Контур_9" data-name="&lt;Контур&gt;" class="cls-13" d="M63.77,50.12h0c.11,0,.11-.16,0-.25h0a.44.44,0,0,0-.39-.09h0c-.12,0-.12.15,0,.25h0A.46.46,0,0,0,63.77,50.12Z"/><path id="_Контур_10" data-name="&lt;Контур&gt;" class="cls-14" d="M59.27,51.87l3.86-1.51c.12,0,.12-.15,0-.25h0a.46.46,0,0,0-.4-.09l-3.86,1.51c-.11,0-.12.16,0,.25h0A.46.46,0,0,0,59.27,51.87Z"/></g><g id="_Группа_8" data-name="&lt;Группа&gt;"><path id="_Контур_11" data-name="&lt;Контур&gt;" class="cls-15" d="M18.93,15.06l2.38-.91c.47-.19.48-.67,0-1.06h0a1.86,1.86,0,0,0-1.69-.37l-2.38.92c-.47.19-.48.66,0,1h0A1.86,1.86,0,0,0,18.93,15.06Z"/><path id="_Контур_12" data-name="&lt;Контур&gt;" class="cls-16" d="M21.35,13.49a1.86,1.86,0,0,0-1.69-.37L17.28,14a.54.54,0,0,0-.33.29.49.49,0,0,1,.31-.69l2.38-.92a1.86,1.86,0,0,1,1.69.37h0a.7.7,0,0,1,.3.76A1.1,1.1,0,0,0,21.35,13.49Z"/></g><g id="_Группа_9" data-name="&lt;Группа&gt;"><g id="_Группа_10" data-name="&lt;Группа&gt;"><path id="_Контур_13" data-name="&lt;Контур&gt;" class="cls-17" d="M35.15,51.79a.22.22,0,0,1,.17.05h0L37,53.3h0a.52.52,0,0,1,.16.31c0,.23-.08.43-.24.45a.19.19,0,0,1-.16-.05h0l-1.65-1.43h0a.43.43,0,0,1-.17-.33C34.89,52,35,51.81,35.15,51.79Z"/><path id="_Контур_14" data-name="&lt;Контур&gt;" class="cls-18" d="M35,51.9a.22.22,0,0,1,.17.05h0l1.68,1.46h0a.49.49,0,0,1,.16.31c0,.23-.08.43-.24.44a.25.25,0,0,1-.17,0h0v0l-1.65-1.43h0a.47.47,0,0,1-.18-.33C34.68,52.11,34.79,51.92,35,51.9Z"/></g><g id="_Группа_11" data-name="&lt;Группа&gt;"><path id="_Контур_15" data-name="&lt;Контур&gt;" class="cls-19" d="M32.55,49.58a.22.22,0,0,1,.17.05h0l1.69,1.46h0a.57.57,0,0,1,.15.31c0,.23-.08.43-.24.45a.3.3,0,0,1-.16-.05h0l0,0-1.65-1.43h0a.43.43,0,0,1-.17-.33C32.29,49.8,32.39,49.6,32.55,49.58Z"/><path id="_Контур_16" data-name="&lt;Контур&gt;" class="cls-20" d="M32.35,49.69a.22.22,0,0,1,.17.05h0L34.2,51.2h0a.49.49,0,0,1,.16.31c0,.23-.08.42-.24.44A.22.22,0,0,1,34,51.9h0l-1.65-1.43h0a.47.47,0,0,1-.18-.33C32.08,49.9,32.19,49.7,32.35,49.69Z"/></g><g id="_Группа_12" data-name="&lt;Группа&gt;"><path id="_Контур_17" data-name="&lt;Контур&gt;" class="cls-21" d="M37.75,54.05a.22.22,0,0,1,.17.05h0l.41.34h0a.52.52,0,0,1,.16.32c0,.22-.08.42-.24.44a.23.23,0,0,1-.17-.05h0l-.38-.32h0a.47.47,0,0,1-.18-.33C37.49,54.27,37.59,54.07,37.75,54.05Z"/><path id="_Контур_18" data-name="&lt;Контур&gt;" class="cls-22" d="M37.55,54.16a.22.22,0,0,1,.17.05h0l.41.34h0a.52.52,0,0,1,.16.31c0,.23-.08.43-.24.45a.26.26,0,0,1-.17-.05h0v0l-.38-.31h0a.47.47,0,0,1-.18-.33C37.28,54.37,37.39,54.17,37.55,54.16Z"/></g></g></g><g id="_Группа_13" data-name="&lt;Группа&gt;"><path id="_Контур_19" data-name="&lt;Контур&gt;" class="cls-23" d="M49,58.68c-.1.38.09.62.4.53a1.23,1.23,0,0,0,.74-.86c.09-.39-.09-.63-.41-.54A1.25,1.25,0,0,0,49,58.68Z"/><g id="_Группа_14" data-name="&lt;Группа&gt;"><path id="_Составной_контур_" data-name="&lt;Составной контур&gt;" class="cls-24" d="M49.14,59.35a.5.5,0,0,0,.27,0,1.35,1.35,0,0,0,.82-1,.63.63,0,0,0-.11-.6.42.42,0,0,0-.45-.1,1.35,1.35,0,0,0-.82,1h0a.66.66,0,0,0,.1.6A.45.45,0,0,0,49.14,59.35Zm.74-1.42L50,58a.38.38,0,0,1,0,.35,1.14,1.14,0,0,1-.65.77.22.22,0,0,1-.22,0,.4.4,0,0,1,0-.35h0a1.14,1.14,0,0,1,.65-.77A.33.33,0,0,1,49.88,57.93Z"/></g></g></g><path id="_Контур_20" data-name="&lt;Контур&gt;" class="cls-25" d="M78.07,39.17,44.17,52.28a.76.76,0,0,1-.72-.15L4.22,18.52a.27.27,0,0,1,.08-.46L38.18,4.77a.67.67,0,0,1,.65.14L78.14,38.75A.25.25,0,0,1,78.07,39.17Z"/><g id="_Группа_15" data-name="&lt;Группа&gt;"><path id="_Составной_контур_2" data-name="&lt;Составной контур&gt;" class="cls-26" d="M44.23,48.33a1.1,1.1,0,0,0,.51,0L78.66,35.18a.61.61,0,0,0,.39-.47.66.66,0,0,0-.21-.61L39.53.26a1,1,0,0,0-1-.21L4.63,13.34a.64.64,0,0,0-.39.49.67.67,0,0,0,.22.63L43.69,48.07A1.09,1.09,0,0,0,44.23,48.33Zm34-13.8-33.7,13a.39.39,0,0,1-.35-.09L5.07,14,38.78.78a.32.32,0,0,1,.29.07Z"/></g></g><g id="_Группа_16" data-name="&lt;Группа&gt;" class="cls-27"><polygon id="_Контур_21" data-name="&lt;Контур&gt;" class="cls-28" points="47.79 38.86 46.83 24.37 42.11 26.24 42.66 33.02 28.36 28.51 22.38 30.83 47.79 38.86"/></g><g id="_Группа_17" data-name="&lt;Группа&gt;" class="cls-27"><polygon id="_Контур_22" data-name="&lt;Контур&gt;" class="cls-29" points="48.05 37.07 47.09 22.59 42.36 24.45 42.92 31.23 28.62 26.72 22.64 29.05 48.05 37.07"/></g></g></g></g></g></svg>