<svg xmlns="http://www.w3.org/2000/svg" xmlns:xlink="http://www.w3.org/1999/xlink" viewBox="0 0 32.89 43.82"><defs><style>.cls-1{fill:#c48eff;}.cls-2{fill:url(#linear-gradient);}.cls-3{fill:url(#linear-gradient-2);}</style><linearGradient id="linear-gradient" x1="-261.8" y1="-653.61" x2="-376.74" y2="-681.97" gradientTransform="translate(-604.64 470.08) rotate(82.26)" gradientUnits="userSpaceOnUse"><stop offset="0" stop-color="#a7e5ff"/><stop offset="1" stop-color="#fff"/></linearGradient><linearGradient id="linear-gradient-2" x1="-341.41" y1="-683.15" x2="-362.21" y2="-683.15" gradientTransform="translate(-604.64 470.08) rotate(82.26)" gradientUnits="userSpaceOnUse"><stop offset="0" stop-color="#a477ff"/><stop offset="1" stop-color="#c2aaff"/></linearGradient></defs><title>item3</title><g id="Слой_2" data-name="Слой 2"><g id="content"><g id="_6" data-name="6"><g id="_Группа_" data-name="&lt;Группа&gt;"><path id="_Контур_" data-name="&lt;Контур&gt;" class="cls-1" d="M26.65,43.19l-.81-1.77a11.77,11.77,0,0,0,1.45-2.57h0c2.26-5.46,1.55-13.14-1.61-17.17L12.89,5.24,10.52.06,6.23.64v0c-1.91.33-3.71,2-4.92,4.91C-.94,11-.23,18.71,2.93,22.73l14.55,18.7c1.4,1.79,3.05,2.55,4.65,2.37h0Z"/><path id="_Контур_2" data-name="&lt;Контур&gt;" class="cls-2" d="M21.76,40.85,7.21,22.15C4.06,18.12,3.34,10.44,5.6,5h0C7.87-.47,12.26-1.63,15.41,2.4L30,21.1c3.15,4,3.87,11.71,1.6,17.16h0C29.31,43.72,24.91,44.87,21.76,40.85Z"/></g><path id="_Контур_3" data-name="&lt;Контур&gt;" class="cls-3" d="M30.11,36.17c-1.78,4.34-5.55,4.85-8.42,1.14a16.27,16.27,0,0,1-2-14.57c1.78-4.34,5.55-4.85,8.42-1.15A16.29,16.29,0,0,1,30.11,36.17Z"/></g></g></g></svg>