<svg xmlns="http://www.w3.org/2000/svg" xmlns:xlink="http://www.w3.org/1999/xlink" viewBox="0 0 26.54 20.28"><defs><style>.cls-1{fill:url(#linear-gradient);}.cls-2{fill:#fdfcff;}</style><linearGradient id="linear-gradient" x1="-8.24" y1="-156.92" x2="-34.31" y2="-156.92" gradientTransform="matrix(0.97, -0.25, 0.25, 0.97, 73.53, 157.09)" gradientUnits="userSpaceOnUse"><stop offset="0" stop-color="#703eff"/><stop offset="1" stop-color="#dbc8ff"/></linearGradient></defs><title>item8</title><g id="Слой_2" data-name="Слой 2"><g id="content"><g id="_4" data-name="4"><path id="_Составной_контур_" data-name="&lt;Составной контур&gt;" class="cls-1" d="M25.08,3.75l-1.18,2a9.46,9.46,0,0,0-2-.91l-.57-.15a3,3,0,0,0-.09-1.07C21,3.09,16.7,1.7,15.42,1.41s-6.78.9-6.78.9L3.77,8.15l1,.3c-.3.24-.59.48-.87.74a11.41,11.41,0,0,0-1.31,1.43L0,10.91l1.27,4.9h0c.5,1.68,2,3.08,4.5,3.86,5.45,1.69,13.49-.27,17.91-4.36C26,13.2,26.87,10.92,26.43,9h0ZM11.52,14.29,7.43,11.87A5.7,5.7,0,0,1,8.48,10.6a11.05,11.05,0,0,1,9.68-2.36,4,4,0,0,1,2,1.26Z"/><g id="_Группа_" data-name="&lt;Группа&gt;"><path id="_Составной_контур_2" data-name="&lt;Составной контур&gt;" class="cls-2" d="M22.61,11.09c-4.42,4.1-12.46,6.05-17.91,4.36S-1.58,9.06,2.84,5,15.3-1.08,20.75.61,27,7,22.61,11.09ZM7.38,6.37C5,8.59,5.44,11.13,8.39,12a11,11,0,0,0,9.68-2.35C20.46,7.47,20,4.93,17.06,4A11,11,0,0,0,7.38,6.37Z"/></g></g></g></g></svg>