<svg xmlns="http://www.w3.org/2000/svg" xmlns:xlink="http://www.w3.org/1999/xlink" viewBox="0 0 60.8 45.37"><defs><style>.cls-1{filter:url(#luminosity-noclip-3);}.cls-2{mask:url(#mask);}.cls-10,.cls-12,.cls-3,.cls-6{mix-blend-mode:multiply;}.cls-3{fill:url(#linear-gradient);}.cls-4{filter:url(#luminosity-noclip-4);}.cls-5{mask:url(#mask-2);}.cls-6{fill:url(#linear-gradient-2);}.cls-7{isolation:isolate;}.cls-8{fill:url(#linear-gradient-3);}.cls-9{mask:url(#mask-3);}.cls-10,.cls-12{opacity:0.8;}.cls-10{fill:url(#linear-gradient-4);}.cls-11{mask:url(#mask-4);}.cls-12{fill:url(#linear-gradient-5);}.cls-13{fill:url(#linear-gradient-6);}.cls-14{fill:url(#linear-gradient-7);}.cls-15{fill:url(#linear-gradient-8);}.cls-16{fill:url(#linear-gradient-9);}.cls-17{fill:url(#linear-gradient-10);}.cls-18{fill:url(#linear-gradient-11);}.cls-19{fill:url(#linear-gradient-12);}.cls-20{fill:url(#linear-gradient-13);}.cls-21{fill:url(#linear-gradient-14);}.cls-22{fill:url(#linear-gradient-15);}.cls-23,.cls-25{mix-blend-mode:overlay;}.cls-23,.cls-24{fill:url(#linear-gradient-16);}.cls-24{opacity:0.5;}.cls-26{fill:url(#linear-gradient-18);}.cls-27{fill:url(#linear-gradient-20);}.cls-28{fill:url(#linear-gradient-22);}.cls-29{fill:url(#linear-gradient-23);}.cls-30{filter:url(#luminosity-noclip-2);}.cls-31{filter:url(#luminosity-noclip);}</style><filter id="luminosity-noclip" x="-8.42" y="-8257.72" width="69.41" height="32766" filterUnits="userSpaceOnUse" color-interpolation-filters="sRGB"><feFlood flood-color="#fff" result="bg"/><feBlend in="SourceGraphic" in2="bg"/></filter><mask id="mask" x="-8.42" y="-8257.72" width="69.41" height="32766" maskUnits="userSpaceOnUse"><g class="cls-31"/></mask><linearGradient id="linear-gradient" x1="34.74" y1="40.18" x2="33.86" y2="38.62" gradientTransform="translate(-3.58 -0.25) rotate(-5.98)" gradientUnits="userSpaceOnUse"><stop offset="0" stop-color="#fff"/><stop offset="1"/></linearGradient><filter id="luminosity-noclip-2" x="-8.41" y="-8257.72" width="69.41" height="32766" filterUnits="userSpaceOnUse" color-interpolation-filters="sRGB"><feFlood flood-color="#fff" result="bg"/><feBlend in="SourceGraphic" in2="bg"/></filter><mask id="mask-2" x="-8.41" y="-8257.72" width="69.41" height="32766" maskUnits="userSpaceOnUse"><g class="cls-30"/></mask><linearGradient id="linear-gradient-2" x1="15.91" y1="46.23" x2="16.99" y2="44.38" xlink:href="#linear-gradient"/><linearGradient id="linear-gradient-3" x1="26.9" y1="30.1" x2="23.11" y2="30.1" gradientTransform="translate(-3.58 -0.25) rotate(-5.98)" gradientUnits="userSpaceOnUse"><stop offset="0" stop-color="#a688ff"/><stop offset="1" stop-color="#c0abff"/></linearGradient><filter id="luminosity-noclip-3" x="-8.42" y="3.76" width="69.41" height="41.61" filterUnits="userSpaceOnUse" color-interpolation-filters="sRGB"><feFlood flood-color="#fff" result="bg"/><feBlend in="SourceGraphic" in2="bg"/></filter><mask id="mask-3" x="-8.42" y="3.76" width="69.41" height="41.61" maskUnits="userSpaceOnUse"><g id="_Группа_3" data-name="&lt;Группа&gt;" class="cls-1"><g class="cls-2"><path id="_Контур_" data-name="&lt;Контур&gt;" class="cls-3" d="M59.71,14.22c-1.48-1.22-1.39,0-1,1.45L32.67,4a3.61,3.61,0,0,0-3.42.46L-4.63,29c-1.53-.52-2.9-.59-3.4.45-.9,1.9-.07,2.79.61,3.32a2,2,0,0,0,.61.38h0L20,45.14a3.52,3.52,0,0,0,3.36-.46l36.41-26.4S62.56,16.55,59.71,14.22Z"/></g></g></mask><linearGradient id="linear-gradient-4" x1="36.73" y1="39.09" x2="36.08" y2="37.93" gradientTransform="translate(-3.58 -0.25) rotate(-5.98)" gradientUnits="userSpaceOnUse"><stop offset="0" stop-color="#3300bf"/><stop offset="1" stop-color="#c0abff"/></linearGradient><filter id="luminosity-noclip-4" x="-8.41" y="3.76" width="69.41" height="41.61" filterUnits="userSpaceOnUse" color-interpolation-filters="sRGB"><feFlood flood-color="#fff" result="bg"/><feBlend in="SourceGraphic" in2="bg"/></filter><mask id="mask-4" x="-8.41" y="3.76" width="69.41" height="41.61" maskUnits="userSpaceOnUse"><g id="_Группа_4" data-name="&lt;Группа&gt;" class="cls-4"><g class="cls-5"><path id="_Контур_2" data-name="&lt;Контур&gt;" class="cls-6" d="M59.73,14.22c-1.49-1.22-1.4,0-1,1.45L32.68,4a3.61,3.61,0,0,0-3.42.46L-4.62,29c-1.53-.52-2.9-.6-3.4.45-.9,1.89-.07,2.79.61,3.32a2.27,2.27,0,0,0,.61.38h0L20,45.14a3.55,3.55,0,0,0,3.36-.46l36.41-26.4S62.57,16.55,59.73,14.22Z"/></g></g></mask><linearGradient id="linear-gradient-5" x1="19.84" y1="48.49" x2="20.91" y2="46.64" xlink:href="#linear-gradient-4"/><linearGradient id="linear-gradient-6" x1="96.05" y1="86.25" x2="29.36" y2="25.1" gradientTransform="matrix(1, -0.09, 0.09, 1, -2.74, 0.97)" gradientUnits="userSpaceOnUse"><stop offset="0" stop-color="#9c74ff"/><stop offset="1" stop-color="#fff6ff"/></linearGradient><linearGradient id="linear-gradient-7" x1="7.08" y1="37.53" x2="13.35" y2="39.94" gradientTransform="translate(-3.58 -0.25) rotate(-5.98)" gradientUnits="userSpaceOnUse"><stop offset="0" stop-color="#3124ff"/><stop offset="1" stop-color="#00ffe2"/></linearGradient><linearGradient id="linear-gradient-8" x1="6.92" y1="37.96" x2="13.19" y2="40.36" xlink:href="#linear-gradient-7"/><linearGradient id="linear-gradient-9" x1="28.33" y1="42.74" x2="33.17" y2="40.71" gradientTransform="translate(-3.58 -0.25) rotate(-5.98)" gradientUnits="userSpaceOnUse"><stop offset="0" stop-color="#3818d6"/><stop offset="1" stop-color="#13ffe2"/></linearGradient><linearGradient id="linear-gradient-10" x1="31.57" y1="42.54" x2="29.13" y2="40.3" xlink:href="#linear-gradient-6"/><linearGradient id="linear-gradient-11" x1="31.29" y1="41.05" x2="36.14" y2="39.03" xlink:href="#linear-gradient-9"/><linearGradient id="linear-gradient-12" x1="34.51" y1="40.81" x2="32.07" y2="38.57" xlink:href="#linear-gradient-6"/><linearGradient id="linear-gradient-13" x1="26.76" y1="43.76" x2="28.79" y2="42.91" xlink:href="#linear-gradient-9"/><linearGradient id="linear-gradient-14" x1="28.61" y1="43.19" x2="27.06" y2="41.77" xlink:href="#linear-gradient-6"/><linearGradient id="linear-gradient-15" x1="4.64" y1="39.49" x2="111.93" y2="-6.85" gradientTransform="translate(-3.58 -0.25) rotate(-5.98)" gradientUnits="userSpaceOnUse"><stop offset="0" stop-color="#0e73ff"/><stop offset="1" stop-color="#fff6ff"/></linearGradient><linearGradient id="linear-gradient-16" x1="4.66" y1="36.16" x2="111.96" y2="-10.17" gradientTransform="translate(-3.58 -0.25) rotate(-5.98)" gradientUnits="userSpaceOnUse"><stop offset="0" stop-color="#0e9cff"/><stop offset="1" stop-color="#fff6ff"/></linearGradient><linearGradient id="linear-gradient-18" x1="4.03" y1="33.65" x2="58.28" y2="10.23" xlink:href="#linear-gradient-16"/><linearGradient id="linear-gradient-20" x1="3.99" y1="33.65" x2="58.24" y2="10.23" xlink:href="#linear-gradient-16"/><linearGradient id="linear-gradient-22" x1="-407.32" y1="-22.77" x2="-407.32" y2="-31.11" gradientTransform="matrix(0.91, 0.41, -0.93, 0.68, 371.62, 212.6)" gradientUnits="userSpaceOnUse"><stop offset="0" stop-color="#0e9cff"/><stop offset="1" stop-color="#fff"/></linearGradient><linearGradient id="linear-gradient-23" x1="-408.35" y1="-23.67" x2="-408.35" y2="-32" xlink:href="#linear-gradient-22"/></defs><title>item7</title><g class="cls-7"><g id="Слой_2" data-name="Слой 2"><g id="content"><g id="_9" data-name="9"><g id="_Группа_5" data-name="&lt;Группа&gt;"><g id="_Группа_6" data-name="&lt;Группа&gt;"><path id="_Контур_3" data-name="&lt;Контур&gt;" class="cls-8" d="M59.63,14.23s-1.31,0-.9,1.44L41.09,7.76a3.62,3.62,0,0,0-3.42.47L3.79,32.77c-1.53-.51-2.9-.59-3.39.45C-.51,35.12.33,36,1,36.54a2,2,0,0,0,.6.38l0,0L20,45.14a3.52,3.52,0,0,0,3.36-.46l36.41-26.4S62.16,16.46,59.63,14.23Z"/><g class="cls-9"><path id="_Контур_4" data-name="&lt;Контур&gt;" class="cls-10" d="M59.63,14.23s-1.31,0-.9,1.44L41.09,7.76a3.62,3.62,0,0,0-3.42.47L3.79,32.77c-1.53-.51-2.9-.59-3.39.45C-.51,35.12.33,36,1,36.54a2,2,0,0,0,.6.38l0,0L20,45.14a3.52,3.52,0,0,0,3.36-.46l36.41-26.4S62.17,16.53,59.63,14.23Z"/></g><g class="cls-11"><path id="_Контур_5" data-name="&lt;Контур&gt;" class="cls-12" d="M59.64,14.23s-1.31,0-.9,1.44L41.1,7.76a3.64,3.64,0,0,0-3.42.46L3.8,32.77c-1.53-.52-2.89-.59-3.39.45C-.5,35.12.34,36,1,36.54a1.92,1.92,0,0,0,.61.38l0,0L20,45.14a3.55,3.55,0,0,0,3.36-.46l36.41-26.4S62.13,16.49,59.64,14.23Z"/></g><path id="_Контур_6" data-name="&lt;Контур&gt;" class="cls-13" d="M.89,32.61,37.43,6.13a3.64,3.64,0,0,1,3.42-.47L59.2,13.89a1.49,1.49,0,0,1,.34,2.52l-36.4,26.4a3.59,3.59,0,0,1-3.37.46L1.43,35.06C.11,34.45.06,33.29.89,32.61Z"/></g><g id="_Группа_7" data-name="&lt;Группа&gt;"><path id="_Контур_7" data-name="&lt;Контур&gt;" class="cls-14" d="M8.76,36.93h0c-.12-.05-.12-.16,0-.25h0a.48.48,0,0,1,.43-.06h0c.12.05.12.16,0,.25h0A.45.45,0,0,1,8.76,36.93Z"/><path id="_Контур_8" data-name="&lt;Контур&gt;" class="cls-15" d="M13.5,39l-4.08-1.8c-.11,0-.11-.17,0-.25h0a.48.48,0,0,1,.43-.07l4.07,1.8c.12,0,.12.17,0,.25h0A.48.48,0,0,1,13.5,39Z"/></g><g id="_Группа_8" data-name="&lt;Группа&gt;"><g id="_Группа_9" data-name="&lt;Группа&gt;"><path id="_Контур_9" data-name="&lt;Контур&gt;" class="cls-16" d="M31.11,37.66a.24.24,0,0,0-.18,0h0L29.14,39h0a.41.41,0,0,0-.17.29.36.36,0,0,0,.22.45.25.25,0,0,0,.17,0h0l1.76-1.28h0a.5.5,0,0,0,.2-.31A.38.38,0,0,0,31.11,37.66Z"/><path id="_Контур_10" data-name="&lt;Контур&gt;" class="cls-17" d="M31.31,37.77a.25.25,0,0,0-.17,0h0l-1.8,1.31h0a.45.45,0,0,0-.17.29.36.36,0,0,0,.22.45.24.24,0,0,0,.18,0h0l1.76-1.29h0a.44.44,0,0,0,.2-.31A.36.36,0,0,0,31.31,37.77Z"/></g><g id="_Группа_10" data-name="&lt;Группа&gt;"><path id="_Контур_11" data-name="&lt;Контур&gt;" class="cls-18" d="M33.88,35.67a.25.25,0,0,0-.17,0h0L31.91,37h0a.47.47,0,0,0-.17.3.36.36,0,0,0,.22.45.3.3,0,0,0,.18,0h0l1.76-1.29h0a.46.46,0,0,0,.2-.31A.36.36,0,0,0,33.88,35.67Z"/><path id="_Контур_12" data-name="&lt;Контур&gt;" class="cls-19" d="M34.09,35.79a.23.23,0,0,0-.18,0h0l-1.79,1.31h0a.48.48,0,0,0-.18.29.36.36,0,0,0,.23.45.25.25,0,0,0,.17,0h0l1.76-1.29h0a.45.45,0,0,0,.19-.31A.36.36,0,0,0,34.09,35.79Z"/></g><g id="_Группа_11" data-name="&lt;Группа&gt;"><path id="_Контур_13" data-name="&lt;Контур&gt;" class="cls-20" d="M28.34,39.69a.24.24,0,0,0-.18,0h0l-.44.3h0a.47.47,0,0,0-.17.3.36.36,0,0,0,.22.45.3.3,0,0,0,.18,0h0l.41-.28h0a.45.45,0,0,0,.19-.31A.36.36,0,0,0,28.34,39.69Z"/><path id="_Контур_14" data-name="&lt;Контур&gt;" class="cls-21" d="M28.54,39.8a.25.25,0,0,0-.17,0h0l-.44.31h0a.48.48,0,0,0-.18.3.36.36,0,0,0,.23.45.25.25,0,0,0,.17,0h0l.4-.29h0a.44.44,0,0,0,.2-.31A.36.36,0,0,0,28.54,39.8Z"/></g></g><path id="_Контур_15" data-name="&lt;Контур&gt;" class="cls-22" d="M58,14.39,40.28,6.5a2.54,2.54,0,0,0-2.4.33L2.07,32.8c-.58.48-.54,1.29.38,1.72l3.62,1.61.49-.36a2.29,2.29,0,0,1,2-.3l8,3.55c.56.25.55.79,0,1.21l-.48.35,4.09,1.81a2.49,2.49,0,0,0,2.36-.32L58.27,16.16A1,1,0,0,0,58,14.39Z"/><g id="_Группа_12" data-name="&lt;Группа&gt;"><path id="_Контур_16" data-name="&lt;Контур&gt;" class="cls-23" d="M57.71,11.08,40,3.19a2.54,2.54,0,0,0-2.4.33l-35.81,26c-.58.47-.54,1.29.38,1.72l3.62,1.6.49-.35a2.3,2.3,0,0,1,2-.31l8,3.56c.56.25.55.79,0,1.2l-.48.36,4.09,1.81a2.49,2.49,0,0,0,2.36-.32L58,12.84A1,1,0,0,0,57.71,11.08Z"/><path id="_Контур_17" data-name="&lt;Контур&gt;" class="cls-24" d="M57.71,11.08,40,3.19a2.54,2.54,0,0,0-2.4.33l-35.81,26c-.58.47-.54,1.29.38,1.72l3.62,1.6.49-.35a2.3,2.3,0,0,1,2-.31l8,3.56c.56.25.55.79,0,1.2l-.48.36,4.09,1.81a2.49,2.49,0,0,0,2.36-.32L58,12.84A1,1,0,0,0,57.71,11.08Z"/></g><g id="_Группа_13" data-name="&lt;Группа&gt;"><g id="_Группа_14" data-name="&lt;Группа&gt;"><g id="_Группа_15" data-name="&lt;Группа&gt;" class="cls-25"><path id="_Составной_контур_" data-name="&lt;Составной контур&gt;" class="cls-26" d="M20.93,36.62a2.73,2.73,0,0,1-1.29-.17L15,34.4l1-.72c.22-.16.29-.31.28-.39s-.14-.16-.2-.19L8.11,29.58a1.92,1.92,0,0,0-1.67.26l-.65.47L2,28.64a1.52,1.52,0,0,1-1-1.14,1.3,1.3,0,0,1,.5-1.17L37.09.55A2.88,2.88,0,0,1,39.81.19L57.43,8a1.36,1.36,0,0,1,.31,2.37L22.31,36.09A2.79,2.79,0,0,1,20.93,36.62Zm-4.52-2.37,3.5,1.55a2.16,2.16,0,0,0,2-.28L57.32,9.81a.66.66,0,0,0-.15-1.14h0L39.54.84a2.18,2.18,0,0,0-2,.29L2,26.89a.61.61,0,0,0-.23.51A.85.85,0,0,0,2.3,28L5.7,29.5,6,29.27a2.61,2.61,0,0,1,2.38-.34l8,3.52a1,1,0,0,1,.62.76A1.22,1.22,0,0,1,16.41,34.25Z"/></g><g id="_Группа_16" data-name="&lt;Группа&gt;" class="cls-25"><path id="_Составной_контур_2" data-name="&lt;Составной контур&gt;" class="cls-26" d="M20.93,36.62a2.73,2.73,0,0,1-1.29-.17L15,34.4l1-.72c.22-.16.29-.31.28-.39s-.14-.16-.2-.19L8.11,29.58a1.92,1.92,0,0,0-1.67.26l-.65.47L2,28.64a1.52,1.52,0,0,1-1-1.14,1.3,1.3,0,0,1,.5-1.17L37.09.55A2.88,2.88,0,0,1,39.81.19L57.43,8a1.36,1.36,0,0,1,.31,2.37L22.31,36.09A2.79,2.79,0,0,1,20.93,36.62Zm-4.52-2.37,3.5,1.55a2.16,2.16,0,0,0,2-.28L57.32,9.81a.66.66,0,0,0-.15-1.14h0L39.54.84a2.18,2.18,0,0,0-2,.29L2,26.89a.61.61,0,0,0-.23.51A.85.85,0,0,0,2.3,28L5.7,29.5,6,29.27a2.61,2.61,0,0,1,2.38-.34l8,3.52a1,1,0,0,1,.62.76A1.22,1.22,0,0,1,16.41,34.25Z"/></g></g><g id="_Группа_17" data-name="&lt;Группа&gt;"><g id="_Группа_18" data-name="&lt;Группа&gt;" class="cls-25"><path id="_Составной_контур_3" data-name="&lt;Составной контур&gt;" class="cls-27" d="M20.89,36.63a2.86,2.86,0,0,1-1.29-.17L15,34.4l1-.71c.23-.17.3-.32.29-.4s-.14-.16-.2-.18L8.07,29.58a2,2,0,0,0-1.68.26l-.64.48L2,28.64A1.5,1.5,0,0,1,1,27.5a1.25,1.25,0,0,1,.5-1.16L37.05.56A2.86,2.86,0,0,1,39.76.19L57.39,8a1.34,1.34,0,0,1,.86,1.08,1.35,1.35,0,0,1-.55,1.28L22.27,36.09A2.94,2.94,0,0,1,20.89,36.63Zm-4.52-2.38,3.5,1.55a2.08,2.08,0,0,0,2-.28L57.28,9.81a.61.61,0,0,0,.26-.61.64.64,0,0,0-.41-.52h0L39.49.85a2.16,2.16,0,0,0-2,.28L1.94,26.9a.59.59,0,0,0-.23.51c0,.23.23.43.55.58l3.4,1.51L6,29.27a2.6,2.6,0,0,1,2.38-.34l8,3.53a.94.94,0,0,1,.61.76A1.17,1.17,0,0,1,16.37,34.25Z"/></g><g id="_Группа_19" data-name="&lt;Группа&gt;" class="cls-25"><path id="_Составной_контур_4" data-name="&lt;Составной контур&gt;" class="cls-27" d="M20.89,36.63a2.86,2.86,0,0,1-1.29-.17L15,34.4l1-.71c.23-.17.3-.32.29-.4s-.14-.16-.2-.18L8.07,29.58a2,2,0,0,0-1.68.26l-.64.48L2,28.64A1.5,1.5,0,0,1,1,27.5a1.25,1.25,0,0,1,.5-1.16L37.05.56A2.86,2.86,0,0,1,39.76.19L57.39,8a1.34,1.34,0,0,1,.86,1.08,1.35,1.35,0,0,1-.55,1.28L22.27,36.09A2.94,2.94,0,0,1,20.89,36.63Zm-4.52-2.38,3.5,1.55a2.08,2.08,0,0,0,2-.28L57.28,9.81a.61.61,0,0,0,.26-.61.64.64,0,0,0-.41-.52h0L39.49.85a2.16,2.16,0,0,0-2,.28L1.94,26.9a.59.59,0,0,0-.23.51c0,.23.23.43.55.58l3.4,1.51L6,29.27a2.6,2.6,0,0,1,2.38-.34l8,3.53a.94.94,0,0,1,.61.76A1.17,1.17,0,0,1,16.37,34.25Z"/></g></g></g></g><g id="_Группа_20" data-name="&lt;Группа&gt;" class="cls-25"><polygon id="_Контур_18" data-name="&lt;Контур&gt;" class="cls-28" points="25.76 27.71 26.64 20.15 29.21 21.29 28.73 24.83 36.75 22.97 40.01 24.4 25.76 27.71"/></g><g id="_Группа_21" data-name="&lt;Группа&gt;" class="cls-25"><polygon id="_Контур_19" data-name="&lt;Контур&gt;" class="cls-29" points="25.65 26.68 26.53 19.12 29.1 20.26 28.63 23.8 36.65 21.94 39.9 23.38 25.65 26.68"/></g></g></g></g></g></svg>