<svg xmlns="http://www.w3.org/2000/svg" xmlns:xlink="http://www.w3.org/1999/xlink" viewBox="0 0 36.87 24.47"><defs><style>.cls-1{fill:url(#linear-gradient);}.cls-2{fill:#fff;}.cls-3{fill:#e2ccff;}.cls-4{fill:url(#linear-gradient-2);}</style><linearGradient id="linear-gradient" x1="444.97" y1="-381.3" x2="436.65" y2="-381.3" gradientTransform="translate(-550.49 148.07) rotate(27.44)" gradientUnits="userSpaceOnUse"><stop offset="0" stop-color="#a477ff"/><stop offset="1" stop-color="#c2aaff"/></linearGradient><linearGradient id="linear-gradient-2" x1="431.05" y1="-386.69" x2="453.93" y2="-386.69" xlink:href="#linear-gradient"/></defs><title>item1</title><g id="Слой_2" data-name="Слой 2"><g id="content"><g id="_1" data-name="1"><path id="_Контур_" data-name="&lt;Контур&gt;" class="cls-1" d="M35.39,22.66h0l1.27-2.42-3.91-3.51-7-11a7.16,7.16,0,0,0-5.57-3.19l-13.32.6L1.48,1.8.24,4.2a1.29,1.29,0,0,0-.09.16l0,0h0A2.73,2.73,0,0,0,.61,6.87L9.8,21.27a7.1,7.1,0,0,0,5.57,3.19l18.27-.81A1.87,1.87,0,0,0,35.39,22.66Z"/><path id="_Контур_2" data-name="&lt;Контур&gt;" class="cls-2" d="M35,21.09,16.7,21.9a7.1,7.1,0,0,1-5.57-3.19L1.94,4.32C.76,2.47,1.34.9,3.23.82L21.5,0a7.14,7.14,0,0,1,5.57,3.2l9.19,14.39C37.44,19.44,36.86,21,35,21.09Z"/><g id="_Группа_" data-name="&lt;Группа&gt;"><path id="_Контур_3" data-name="&lt;Контур&gt;" class="cls-3" d="M19.46,10.74l-.23-7.21a14.86,14.86,0,0,0-4.8-.68c-5.16.23-7.09,4-4.31,8.3s9.21,7.7,14.37,7.47,7.09-4,4.31-8.3c-.08-.13-.18-.26-.27-.39Z"/><path id="_Контур_4" data-name="&lt;Контур&gt;" class="cls-4" d="M13.51,4.63a14.57,14.57,0,0,1,4.8.67l.23,7.21,9.07-.81c.09.13.19.26.27.39A6.35,6.35,0,0,1,29,16.83c1.39-1.53,1.43-3.9-.24-6.51-.08-.13-.18-.26-.27-.39l-9.07.81-.23-7.21a14.86,14.86,0,0,0-4.8-.68C11.34,3,9.42,4.38,9,6.41A6.36,6.36,0,0,1,13.51,4.63Z"/></g></g></g></g></svg>