<svg xmlns="http://www.w3.org/2000/svg" xmlns:xlink="http://www.w3.org/1999/xlink" viewBox="0 0 33.47 23.47"><defs><style>.cls-1{fill:url(#linear-gradient);}.cls-2{fill:#c2aeff;}.cls-3{fill:#9f84f4;}</style><linearGradient id="linear-gradient" x1="138.9" y1="55.48" x2="-12.86" y2="9.04" gradientTransform="translate(7.57 -2.95) rotate(-17.16)" gradientUnits="userSpaceOnUse"><stop offset="0" stop-color="#cab9ff"/><stop offset="1" stop-color="#fff"/></linearGradient></defs><title>item9</title><g id="Слой_2" data-name="Слой 2"><g id="content"><g id="_2" data-name="2"><g id="_Группа_" data-name="&lt;Группа&gt;"><path id="_Составной_контур_" data-name="&lt;Составной контур&gt;" class="cls-1" d="M32.05,4.14,18.5,18.87,0,14.73,13.55,0ZM17.33,14.42l7.16-7.78L14.72,4.45,7.56,12.23Z"/></g><polygon id="_Контур_" data-name="&lt;Контур&gt;" class="cls-2" points="0 14.73 1.42 19.32 19.91 23.46 18.5 18.87 0 14.73"/><polygon id="_Контур_2" data-name="&lt;Контур&gt;" class="cls-3" points="32.05 4.14 33.47 8.73 19.91 23.46 18.5 18.87 32.05 4.14"/><polygon id="_Контур_3" data-name="&lt;Контур&gt;" class="cls-2" points="14.72 4.45 16.14 9.04 21.23 10.18 24.49 6.64 14.72 4.45"/><polygon id="_Контур_4" data-name="&lt;Контур&gt;" class="cls-3" points="7.56 12.23 14.72 4.45 16.14 9.04 12.24 13.28 7.56 12.23"/></g></g></g></svg>