<svg xmlns="http://www.w3.org/2000/svg" xmlns:xlink="http://www.w3.org/1999/xlink" viewBox="0 0 47.32 40.35"><defs><style>.cls-1{fill:url(#linear-gradient);}.cls-2{fill:url(#linear-gradient-2);}.cls-3{fill:url(#linear-gradient-3);}.cls-4{fill:url(#linear-gradient-4);}.cls-5{fill:url(#linear-gradient-5);}.cls-6{fill:#c2aeff;}</style><linearGradient id="linear-gradient" x1="-111.04" y1="482.68" x2="-121.43" y2="482.68" gradientTransform="translate(-137.52 -444.23) rotate(-32.28)" gradientUnits="userSpaceOnUse"><stop offset="0" stop-color="#a477ff"/><stop offset="1" stop-color="#c2aaff"/></linearGradient><linearGradient id="linear-gradient-2" x1="41.03" y1="488.57" x2="-134.78" y2="474.6" gradientTransform="translate(-137.52 -444.23) rotate(-32.28)" gradientUnits="userSpaceOnUse"><stop offset="0" stop-color="#cab9ff"/><stop offset="1" stop-color="#fff"/></linearGradient><linearGradient id="linear-gradient-3" x1="-116.39" y1="481.22" x2="-125.72" y2="481.22" gradientTransform="translate(-137.52 -444.23) rotate(-32.28)" gradientUnits="userSpaceOnUse"><stop offset="0" stop-color="#c2aaff"/><stop offset="1" stop-color="#a477ff"/></linearGradient><linearGradient id="linear-gradient-4" x1="-107.42" y1="475.98" x2="-116.75" y2="475.98" xlink:href="#linear-gradient-3"/><linearGradient id="linear-gradient-5" x1="-98.45" y1="470.75" x2="-107.78" y2="470.75" xlink:href="#linear-gradient-3"/></defs><title>item5</title><g id="Слой_2" data-name="Слой 2"><g id="content"><g id="_5" data-name="5"><path id="_Контур_" data-name="&lt;Контур&gt;" class="cls-1" d="M46.09,4.71h0L43.86,1.19l-8,6.35L26.43,8A10.19,10.19,0,0,0,18.74,13l-7.17,13.8L.39,35.71,2.49,39a3.45,3.45,0,0,0,.2.32l0,0h0a3.18,3.18,0,0,0,2.73,1L24.5,39.5a10.17,10.17,0,0,0,7.69-5.07l6.66-12.82L47,21.25s1.08-3.89-.51-6.36L47.13,16,44.2,11.32l1.66-3.19A3.48,3.48,0,0,0,46.09,4.71Z"/><path id="_Контур_2" data-name="&lt;Контур&gt;" class="cls-2" d="M14.25,5.93.58,32.22C-.81,34.9.38,37,3.23,36.84L22.29,36A10.22,10.22,0,0,0,30,30.92l6.66-12.81,8.11-.36s2-7.38-3.63-8.26l2.52-4.87C45,2,43.85-.12,41,0L21.94.85A10.2,10.2,0,0,0,14.25,5.93Z"/><g id="_Группа_" data-name="&lt;Группа&gt;"><path id="_Контур_3" data-name="&lt;Контур&gt;" class="cls-3" d="M18.9,23.81c2.05-.09,2.9,1.39,1.9,3.31a7.31,7.31,0,0,1-5.5,3.63c-2.05.09-2.9-1.39-1.9-3.31A7.31,7.31,0,0,1,18.9,23.81Z"/><path id="_Контур_4" data-name="&lt;Контур&gt;" class="cls-4" d="M23.69,14.6c2-.09,2.89,1.39,1.9,3.3a7.3,7.3,0,0,1-5.51,3.64c-2,.09-2.89-1.39-1.89-3.31A7.27,7.27,0,0,1,23.69,14.6Z"/><path id="_Контур_5" data-name="&lt;Контур&gt;" class="cls-5" d="M28.48,5.38c2-.09,2.89,1.39,1.9,3.31a7.29,7.29,0,0,1-5.51,3.63c-2,.1-2.89-1.39-1.89-3.3A7.28,7.28,0,0,1,28.48,5.38Z"/></g><polygon id="_Контур_6" data-name="&lt;Контур&gt;" class="cls-6" points="36.64 18.11 38.85 21.61 46.96 21.25 44.75 17.75 36.64 18.11"/></g></g></g></svg>