<svg xmlns="http://www.w3.org/2000/svg" xmlns:xlink="http://www.w3.org/1999/xlink" viewBox="0 0 48.5 58"><defs><style>.cls-1{fill:url(#linear-gradient);}.cls-2{fill:#fff;}.cls-3{fill:#c48eff;}</style><linearGradient id="linear-gradient" x1="6.24" y1="43.3" x2="-7.36" y2="43.3" gradientTransform="matrix(0.62, -0.79, 0.79, 0.62, -7.68, 3.57)" gradientUnits="userSpaceOnUse"><stop offset="0" stop-color="#a477ff"/><stop offset="1" stop-color="#c2aaff"/></linearGradient></defs><title>item4</title><g id="Слой_2" data-name="Слой 2"><g id="content"><g id="_3" data-name="3"><path id="_Контур_" data-name="&lt;Контур&gt;" class="cls-1" d="M47.34,3.63h0L43.64.71,36.44,6.2,15.62,14.55C12.11,16,8.89,19.72,8.43,23L5.17,45.71l-4,8.67,3.66,2.87.25.19,0,.05h0c1,.66,2.52.71,4.34,0l27.32-11c3.51-1.4,6.72-5.17,7.19-8.41L48.45,6.92A3.22,3.22,0,0,0,47.34,3.63Z"/><path id="_Контур_2" data-name="&lt;Контур&gt;" class="cls-2" d="M44.54,3.85l-4.47,31.2c-.46,3.23-3.68,7-7.18,8.4l-27.33,11c-3.5,1.41-6-.08-5.5-3.32l4.46-31.2c.47-3.23,3.69-7,7.19-8.4L39,.53C42.54-.88,45,.61,44.54,3.85Z"/><g id="_Группа_" data-name="&lt;Группа&gt;"><g id="_Группа_2" data-name="&lt;Группа&gt;"><path id="_Составной_контур_" data-name="&lt;Составной контур&gt;" class="cls-3" d="M38.83,20.84c-1.4,9.72-9.94,20.6-19.06,24.26s-15.39-1.28-14-11S15.71,13.5,24.82,9.84,40.22,11.12,38.83,20.84ZM9.39,32.64c-1.08,7.59,3.82,11.45,10.94,8.59S34.12,29.88,35.2,22.3s-3.81-11.45-10.93-8.59S10.48,25.06,9.39,32.64Z"/></g><g id="_Группа_3" data-name="&lt;Группа&gt;"><polygon id="_Контур_3" data-name="&lt;Контур&gt;" class="cls-3" points="28.35 23.72 21.22 30.17 14.5 24.47 17.5 20.75 22.61 25.08 27.11 21.01 28.35 23.72"/></g></g></g></g></g></svg>