<svg xmlns="http://www.w3.org/2000/svg" xmlns:xlink="http://www.w3.org/1999/xlink" viewBox="0 0 64.03 62.3"><defs><style>.cls-1{fill:url(#linear-gradient);}.cls-2{fill:#fff;}.cls-3{fill:#e2ccff;}.cls-4{fill:url(#linear-gradient-2);}.cls-5{fill:url(#linear-gradient-3);}</style><linearGradient id="linear-gradient" x1="59.21" y1="-10.69" x2="46.72" y2="-10.69" gradientTransform="matrix(0.72, 0.69, -0.69, 0.72, -15.39, 4.45)" gradientUnits="userSpaceOnUse"><stop offset="0" stop-color="#a477ff"/><stop offset="1" stop-color="#c2aaff"/></linearGradient><linearGradient id="linear-gradient-2" x1="31.86" y1="-21.08" x2="82.91" y2="-21.08" xlink:href="#linear-gradient"/><linearGradient id="linear-gradient-3" x1="48.04" y1="-7.83" x2="52.99" y2="-7.83" xlink:href="#linear-gradient"/></defs><title>item6</title><g id="Слой_2" data-name="Слой 2"><g id="content"><g id="_7" data-name="7"><path id="_Контур_" data-name="&lt;Контур&gt;" class="cls-1" d="M59.06,61.21h0l3.85-4-5.6-9.08L50,22.72c-1.24-4.27-5.28-8.49-9-9.41l-26.3-6.5L5,1.09l-3.8,4a3.07,3.07,0,0,0-.25.26l-.06.06h0C0,6.46-.28,8.26.36,10.47L10,43.8c1.23,4.27,5.27,8.49,9,9.42l36.07,8.9A3.78,3.78,0,0,0,59.06,61.21Z"/><path id="_Контур_2" data-name="&lt;Контур&gt;" class="cls-2" d="M59.13,57.9,23.07,49c-3.74-.93-7.78-5.14-9-9.42L4.42,6.25C3.18,2,5.21-.74,9,.18L45,9.09c3.74.92,7.78,5.14,9,9.41l9.64,33.33C64.91,56.11,62.88,58.83,59.13,57.9Z"/><path id="_Контур_3" data-name="&lt;Контур&gt;" class="cls-3" d="M55.29,47.82c-2.39-4.13-6.73-10.31-11.94-11.6l-2.63-.65-1.18-2.86a3.6,3.6,0,0,0,1-3.07h0L40,22.23c0-.18,0-.37,0-.56v-.14h0a8.8,8.8,0,0,0-.28-1.33A17.13,17.13,0,0,0,28.46,9.43c-4.8-1.18-7.58,1.71-6.2,6.46a12.2,12.2,0,0,0,.49,1.35h0l.08.16c.11.25.23.5.36.74l4,8.19h0a13.51,13.51,0,0,0,3,4.06l.43,2.68L28,32.43c-5.23-1.29-6.4,3.53-6.58,7-.09,1.6,1.74,3.73,3.6,4.19L39.1,47.12l.61.15,14,3.46C55.6,51.19,56.38,49.71,55.29,47.82Z"/><g id="_Группа_" data-name="&lt;Группа&gt;"><path id="_Контур_4" data-name="&lt;Контур&gt;" class="cls-4" d="M26.41,11.56A17.15,17.15,0,0,1,37.6,22.32a8.48,8.48,0,0,1,.27,1.33h0v.15a3.52,3.52,0,0,1,0,.56l.54,7.4h0a3.64,3.64,0,0,1-1,3.08l1.17,2.86,2.63.65c5.21,1.28,9.56,7.47,11.94,11.6a3.93,3.93,0,0,1,.34.73l.16,0c1.87.46,2.65-1,1.56-2.92-2.39-4.12-6.73-10.31-11.94-11.6l-2.63-.65L39.54,32.7a3.6,3.6,0,0,0,1-3.07h0L40,22.22c0-.18,0-.37,0-.56v-.14h0a8.91,8.91,0,0,0-.28-1.34A17.12,17.12,0,0,0,28.47,9.43c-3.14-.78-5.41.19-6.23,2.28A6.56,6.56,0,0,1,26.41,11.56Z"/><path id="_Контур_5" data-name="&lt;Контур&gt;" class="cls-5" d="M26,34.56l2.6.64,2.06-2.13s-2.55-.61-2.58-.64h0c-3-.73-4.61.5-5.53,2.33A5,5,0,0,1,26,34.56Z"/></g></g></g></g></svg>